<?xml version="1.0" standalone="no"?>
<!DOCTYPE svg PUBLIC "-//W3C//DTD SVG 20010904//EN"
 "http://www.w3.org/TR/2001/REC-SVG-20010904/DTD/svg10.dtd">
<svg version="1.0" xmlns="http://www.w3.org/2000/svg"
 width="280.000000pt" height="280.000000pt" viewBox="0 0 280.000000 280.000000"
 preserveAspectRatio="xMidYMid meet">
<metadata>
Created by potrace 1.11, written by Peter Selinger 2001-2013
</metadata>
<g transform="translate(0.000000,280.000000) scale(0.100000,-0.100000)"
fill="#000000" stroke="none">
<path d="M1320 2789 c-86 -9 -140 -24 -227 -64 -323 -149 -484 -479 -409 -841
10 -49 65 -175 99 -226 54 -81 133 -160 214 -212 121 -78 228 -111 394 -121
188 -11 303 -59 420 -175 128 -127 188 -283 176 -454 -4 -45 -8 -88 -10 -96
-42 -182 -194 -356 -367 -419 -122 -45 -279 -48 -398 -8 -231 79 -395 296
-406 536 -1 24 -4 25 -68 26 -67 2 -71 0 -71 -35 -1 -130 59 -294 149 -411
144 -188 353 -289 594 -287 312 3 585 201 683 498 33 97 39 136 37 243 -2 245
-126 470 -332 604 -116 75 -230 111 -381 119 -167 8 -281 47 -382 129 -74 61
-96 85 -141 158 -144 233 -107 539 88 725 51 49 110 93 116 88 3 -4 6 -392 3
-478 l-1 -26 -99 0 c-54 0 -103 -2 -109 -6 -12 -7 6 -84 31 -132 21 -41 69
-81 131 -110 98 -45 237 -17 307 64 l29 33 33 -34 c55 -58 111 -82 197 -82 79
0 137 21 188 68 34 31 73 101 78 139 3 18 7 39 9 46 5 14 9 14 -117 13 l-98 0
0 260 0 260 32 -18 c56 -32 172 -155 206 -220 35 -66 72 -195 72 -250 0 -35 1
-35 65 -35 78 0 75 -2 75 50 0 132 -82 326 -187 441 -163 178 -384 263 -623
240z m208 -151 c23 -6 32 -14 33 -31 2 -70 0 -189 -4 -193 -3 -4 -268 -7 -324
-5 -10 1 -13 30 -13 110 l0 108 43 11 c50 12 219 13 265 0z m33 -365 c4 -91 3
-178 -3 -193 -6 -17 -20 -18 -172 -18 l-166 0 0 114 0 114 170 0 c155 0 170
-2 171 -17z"/>
<path d="M1087 1198 l52 -53 -16 -65 c-9 -36 -17 -66 -18 -68 -1 -1 -32 -11
-69 -21 l-67 -18 -47 48 c-26 27 -50 49 -53 49 -3 0 8 -54 25 -119 l31 -120
70 -20 c38 -11 93 -25 120 -32 47 -11 64 -26 285 -245 l235 -234 90 90 90 90
-233 233 -232 233 -31 114 c-17 63 -34 118 -37 122 -6 6 -223 68 -239 68 -4 0
16 -24 44 -52z"/>
</g>
</svg>
