<?xml version="1.0" encoding="UTF-8" standalone="no"?>
<!-- Created with Inkscape (http://www.inkscape.org/) -->

<svg
   xmlns:dc="http://purl.org/dc/elements/1.1/"
   xmlns:cc="http://creativecommons.org/ns#"
   xmlns:rdf="http://www.w3.org/1999/02/22-rdf-syntax-ns#"
   xmlns:svg="http://www.w3.org/2000/svg"
   xmlns="http://www.w3.org/2000/svg"
   xmlns:sodipodi="http://sodipodi.sourceforge.net/DTD/sodipodi-0.dtd"
   xmlns:inkscape="http://www.inkscape.org/namespaces/inkscape"
   version="1.1"
   id="svg2"
   xml:space="preserve"
   width="800"
   height="800"
   viewBox="0 0 800 800"
   sodipodi:docname="whsRoboticsFBIcon.svg"
   inkscape:version="0.92.3 (2405546, 2018-03-11)"><metadata
     id="metadata8"><rdf:RDF><cc:Work
         rdf:about=""><dc:format>image/svg+xml</dc:format><dc:type
           rdf:resource="http://purl.org/dc/dcmitype/StillImage" /><dc:title></dc:title></cc:Work></rdf:RDF></metadata><defs
     id="defs6"><clipPath
       clipPathUnits="userSpaceOnUse"
       id="clipPath26"><path
         d="M 0,600 H 600 V 0 H 0 Z"
         id="path24"
         inkscape:connector-curvature="0" /></clipPath><clipPath
       clipPathUnits="userSpaceOnUse"
       id="clipPath108"><path
         d="m 260.051,206.057 h 78.675 V 184.6 h -78.675 z"
         id="path106"
         inkscape:connector-curvature="0" /></clipPath></defs><sodipodi:namedview
     pagecolor="#ffffff"
     bordercolor="#666666"
     borderopacity="1"
     objecttolerance="10"
     gridtolerance="10"
     guidetolerance="10"
     inkscape:pageopacity="0"
     inkscape:pageshadow="2"
     inkscape:window-width="1920"
     inkscape:window-height="1011"
     id="namedview4"
     showgrid="false"
     inkscape:zoom="0.295"
     inkscape:cx="-13.559322"
     inkscape:cy="400"
     inkscape:window-x="-6"
     inkscape:window-y="-9"
     inkscape:window-maximized="1"
     inkscape:current-layer="g10" /><g
     id="g10"
     inkscape:groupmode="layer"
     inkscape:label="whsRoboticsFBIcon"
     transform="matrix(1.3333333,0,0,-1.3333333,0,800)"><path
       d="M 0,0.001 H 600 V 599.999 H 0 Z"
       style="fill:#ffd801;fill-opacity:1;fill-rule:nonzero;stroke:none"
       id="path12"
       inkscape:connector-curvature="0" /><path
       d="M 564.764,35.24 H 35.238 v 529.52 h 529.526 z"
       style="fill:#000000;fill-opacity:1;fill-rule:nonzero;stroke:none"
       id="path14"
       inkscape:connector-curvature="0" /><g
       id="g16"
       transform="translate(207.8906,383.2617)"><path
         d="m 0,0 -25.43,85.078 h -0.468 L -51.328,0 h -21.563 l -38.906,121.641 h 25.899 l 23.32,-85.196 h 0.469 l 27.539,85.196 h 17.812 L 10.781,36.445 h 0.469 l 23.32,85.196 H 60.469 L 21.562,0 Z"
         style="fill:#ffd801;fill-opacity:1;fill-rule:nonzero;stroke:none"
         id="path18"
         inkscape:connector-curvature="0" /></g><g
       id="g20"><g
         id="g22"
         clip-path="url(#clipPath26)"><g
           id="g28"
           transform="translate(284.6484,383.2617)"><path
             d="m 0,0 v 170.742 h 24.492 v -62.109 h 0.469 c 7.577,9.609 18.124,14.414 31.641,14.414 9.452,0 18.574,-3.594 27.363,-10.781 8.789,-7.189 13.183,-17.657 13.183,-31.407 V 0 H 72.656 v 72.422 c 0,8.203 -2.285,14.608 -6.855,19.219 C 61.23,96.25 55.547,98.555 48.75,98.555 41.719,98.555 35.918,96.25 31.348,91.641 26.777,87.03 24.492,80.625 24.492,72.422 V 0 Z"
             style="fill:#ffd801;fill-opacity:1;fill-rule:nonzero;stroke:none"
             id="path30"
             inkscape:connector-curvature="0" /></g><g
           id="g32"
           transform="translate(399.9609,403.5352)"><path
             d="M 0,0 17.109,16.875 C 27.733,6.484 40.507,1.289 55.43,1.289 c 6.952,0 12.694,1.308 17.226,3.926 4.531,2.617 6.797,6.504 6.797,11.66 0,7.108 -4.962,11.093 -14.883,11.953 L 43.008,30.82 c -10.078,0.781 -18.439,4.102 -25.078,9.961 -6.642,5.86 -9.961,14.023 -9.961,24.492 0,12.344 4.336,21.68 13.008,28.008 8.671,6.328 19.453,9.492 32.343,9.492 10.624,0 19.726,-1.504 27.305,-4.511 7.577,-3.009 14.374,-7.013 20.391,-12.012 L 85.898,68.438 c -4.844,3.281 -9.843,5.976 -15,8.085 -5.156,2.11 -11.015,3.165 -17.578,3.165 -7.813,0 -13.242,-1.388 -16.289,-4.161 -3.047,-2.774 -4.57,-6.269 -4.57,-10.488 0,-2.657 1.132,-5.118 3.398,-7.383 2.265,-2.266 6.484,-3.633 12.657,-4.101 l 20.156,-1.407 c 12.577,-0.86 21.6,-4.746 27.07,-11.66 5.468,-6.914 8.203,-15.176 8.203,-24.785 0,-11.953 -4.883,-21.172 -14.648,-27.656 C 79.53,-18.438 67.617,-21.68 53.555,-21.68 33.319,-21.68 15.469,-14.454 0,0"
             style="fill:#ffd801;fill-opacity:1;fill-rule:nonzero;stroke:none"
             id="path34"
             inkscape:connector-curvature="0" /></g><g
           id="g36"
           transform="translate(77.6758,273.4297)"><path
             d="m 0,0 v 69.436 h 13.981 v -7.425 h 0.268 c 4.325,5.485 10.345,8.227 18.061,8.227 5.084,0 9.922,-1.783 14.516,-5.351 L 36.725,52.846 c -3.033,2.275 -6.11,3.412 -9.231,3.412 -3.435,0 -6.546,-1.149 -9.332,-3.445 -2.788,-2.297 -4.181,-5.987 -4.181,-11.071 L 13.981,0 Z"
             style="fill:#ffd801;fill-opacity:1;fill-rule:nonzero;stroke:none"
             id="path38"
             inkscape:connector-curvature="0" /></g><g
           id="g40"
           transform="translate(170.793,308.0801)"><path
             d="m 0,0 c 0,5.039 -0.257,8.585 -0.769,10.637 -0.514,2.051 -1.395,4.013 -2.643,5.886 -2.453,3.389 -6.199,5.084 -11.238,5.084 -5.129,0 -8.875,-1.695 -11.238,-5.084 -1.338,-1.873 -2.241,-3.835 -2.709,-5.886 C -29.066,8.585 -29.3,5.084 -29.3,0.135 c 0,-5.084 0.234,-8.663 0.703,-10.738 0.468,-2.073 1.371,-4.024 2.709,-5.852 2.363,-3.391 6.109,-5.084 11.238,-5.084 5.039,0 8.785,1.693 11.238,5.084 1.248,1.828 2.129,3.767 2.643,5.819 C -0.257,-8.585 0,-5.039 0,0 m -43.281,0.135 c 0,7.447 0.579,12.999 1.739,16.656 1.16,3.656 3.078,6.957 5.753,9.9 1.917,2.096 4.56,4.103 7.927,6.021 3.367,1.917 7.771,2.876 13.212,2.876 5.352,0 9.722,-0.959 13.111,-2.876 3.389,-1.918 6.043,-3.925 7.961,-6.021 2.676,-2.943 4.593,-6.244 5.753,-9.9 1.159,-3.657 1.739,-9.209 1.739,-16.656 0,-7.582 -0.58,-13.201 -1.739,-16.858 -1.16,-3.658 -3.077,-6.957 -5.753,-9.9 -1.918,-2.141 -4.572,-4.148 -7.961,-6.022 -3.389,-1.873 -7.759,-2.808 -13.111,-2.808 -5.441,0 -9.845,0.935 -13.212,2.808 -3.367,1.874 -6.01,3.881 -7.927,6.022 -2.675,2.943 -4.593,6.242 -5.753,9.9 -1.16,3.657 -1.739,9.276 -1.739,16.858"
             style="fill:#ffd801;fill-opacity:1;fill-rule:nonzero;stroke:none"
             id="path42"
             inkscape:connector-curvature="0" /></g><g
           id="g44"
           transform="translate(227.1187,329.6875)"><path
             d="m 0,0 c -6.556,0 -10.481,-2.342 -11.774,-7.023 -1.294,-4.684 -1.94,-9.5 -1.94,-14.45 0,-5.084 0.646,-9.967 1.94,-14.65 1.293,-4.683 5.218,-7.023 11.774,-7.023 6.555,0 10.49,2.25 11.807,6.755 1.314,4.504 1.972,9.477 1.972,14.918 0,5.307 -0.658,10.211 -1.972,14.717 C 10.49,-2.252 6.555,0 0,0 m -27.695,-56.258 v 97.465 h 13.981 V 5.753 c 2.586,2.452 5.318,4.436 8.194,5.954 2.877,1.516 6.122,2.273 9.734,2.273 4.236,0 7.893,-0.859 10.971,-2.575 3.077,-1.717 5.619,-3.869 7.626,-6.455 1.917,-2.498 3.22,-5.408 3.913,-8.729 0.69,-3.324 1.037,-9.221 1.037,-17.694 0,-8.562 -0.347,-14.528 -1.037,-17.894 -0.693,-3.368 -1.996,-6.278 -3.913,-8.731 -2.007,-2.631 -4.549,-4.782 -7.626,-6.455 -3.078,-1.672 -6.735,-2.508 -10.971,-2.508 -7.136,0 -13.111,2.676 -17.928,8.028 v -7.225 z"
             style="fill:#ffd801;fill-opacity:1;fill-rule:nonzero;stroke:none"
             id="path46"
             inkscape:connector-curvature="0" /></g><g
           id="g48"
           transform="translate(310.3359,308.0801)"><path
             d="m 0,0 c 0,5.039 -0.258,8.585 -0.77,10.637 -0.513,2.051 -1.394,4.013 -2.642,5.886 -2.453,3.389 -6.2,5.084 -11.239,5.084 -5.129,0 -8.875,-1.695 -11.238,-5.084 -1.338,-1.873 -2.241,-3.835 -2.709,-5.886 -0.469,-2.052 -0.703,-5.553 -0.703,-10.502 0,-5.084 0.234,-8.663 0.703,-10.738 0.468,-2.073 1.371,-4.024 2.709,-5.852 2.363,-3.391 6.109,-5.084 11.238,-5.084 5.039,0 8.786,1.693 11.239,5.084 1.248,1.828 2.129,3.767 2.642,5.819 C -0.258,-8.585 0,-5.039 0,0 m -43.282,0.135 c 0,7.447 0.579,12.999 1.74,16.656 1.159,3.656 3.077,6.957 5.752,9.9 1.917,2.096 4.559,4.103 7.927,6.021 3.366,1.917 7.771,2.876 13.212,2.876 5.352,0 9.721,-0.959 13.112,-2.876 3.389,-1.918 6.043,-3.925 7.961,-6.021 2.676,-2.943 4.592,-6.244 5.752,-9.9 1.16,-3.657 1.74,-9.209 1.74,-16.656 0,-7.582 -0.58,-13.201 -1.74,-16.858 -1.16,-3.658 -3.076,-6.957 -5.752,-9.9 -1.918,-2.141 -4.572,-4.148 -7.961,-6.022 -3.391,-1.873 -7.76,-2.808 -13.112,-2.808 -5.441,0 -9.846,0.935 -13.212,2.808 -3.368,1.874 -6.01,3.881 -7.927,6.022 -2.675,2.943 -4.593,6.242 -5.752,9.9 -1.161,3.657 -1.74,9.276 -1.74,16.858"
             style="fill:#ffd801;fill-opacity:1;fill-rule:nonzero;stroke:none"
             id="path50"
             inkscape:connector-curvature="0" /></g><g
           id="g52"
           transform="translate(339.7695,273.3623)"><path
             d="M 0,0 V 58.8 H -6.957 V 69.503 H 0 V 80.407 L 13.98,95.325 V 69.503 H 24.148 V 58.8 H 13.98 V 0 Z"
             style="fill:#ffd801;fill-opacity:1;fill-rule:nonzero;stroke:none"
             id="path54"
             inkscape:connector-curvature="0" /></g><path
           d="m 377.43,342.865 h 13.982 V 273.429 H 377.43 Z m 0,28.03 h 13.982 v -13.98 H 377.43 Z"
           style="fill:#ffd801;fill-opacity:1;fill-rule:nonzero;stroke:none"
           id="path56"
           inkscape:connector-curvature="0" /><g
           id="g58"
           transform="translate(450.6797,293.832)"><path
             d="m 0,0 10.303,-9.231 c -3.033,-3.479 -6.635,-6.345 -10.805,-8.596 -4.17,-2.253 -8.887,-3.378 -14.148,-3.378 -8.028,0 -15.286,2.73 -21.774,8.194 -6.488,5.462 -9.732,14.55 -9.732,27.259 0,12.711 3.244,21.818 9.732,27.327 6.488,5.507 13.746,8.261 21.774,8.261 5.261,0 9.978,-1.137 14.148,-3.411 4.17,-2.275 7.772,-5.152 10.805,-8.63 L 0,28.631 c -3.924,4.816 -8.629,7.224 -14.115,7.224 -12.041,0 -18.061,-7.203 -18.061,-21.607 0,-14.359 6.02,-21.539 18.061,-21.539 5.529,0 10.236,2.43 14.115,7.291"
             style="fill:#ffd801;fill-opacity:1;fill-rule:nonzero;stroke:none"
             id="path60"
             inkscape:connector-curvature="0" /></g><g
           id="g62"
           transform="translate(462.9883,285.002)"><path
             d="m 0,0 9.768,9.633 c 6.064,-5.932 13.355,-8.897 21.873,-8.897 3.968,0 7.248,0.746 9.834,2.241 2.586,1.494 3.88,3.712 3.88,6.656 0,4.057 -2.834,6.332 -8.496,6.823 l -12.308,1.138 c -5.754,0.445 -10.526,2.341 -14.317,5.685 -3.791,3.345 -5.685,8.004 -5.685,13.981 0,7.047 2.474,12.376 7.426,15.988 4.949,3.612 11.103,5.418 18.462,5.418 6.065,0 11.26,-0.859 15.586,-2.575 4.327,-1.718 8.206,-4.003 11.641,-6.857 L 49.033,39.066 c -2.765,1.873 -5.619,3.413 -8.562,4.616 -2.944,1.205 -6.287,1.806 -10.034,1.806 -4.46,0 -7.558,-0.793 -9.298,-2.375 -1.739,-1.584 -2.61,-3.578 -2.61,-5.986 0,-1.518 0.647,-2.922 1.942,-4.215 1.293,-1.294 3.701,-2.074 7.224,-2.342 l 11.506,-0.802 c 7.18,-0.491 12.33,-2.709 15.451,-6.656 3.121,-3.947 4.684,-8.663 4.684,-14.148 0,-6.823 -2.787,-12.086 -8.361,-15.787 C 45.398,-10.525 38.598,-12.375 30.57,-12.375 19.02,-12.375 8.83,-8.251 0,0"
             style="fill:#ffd801;fill-opacity:1;fill-rule:nonzero;stroke:none"
             id="path64"
             inkscape:connector-curvature="0" /></g><g
           id="g66"
           transform="translate(346.1416,205.6787)"><path
             d="M 0,0 C 0,25.504 -20.676,46.18 -46.18,46.18 V 56.961 C -14.721,56.961 10.781,31.458 10.781,0 Z"
             style="fill:#ffd801;fill-opacity:1;fill-rule:nonzero;stroke:none"
             id="path68"
             inkscape:connector-curvature="0" /></g><g
           id="g70"
           transform="translate(299.9619,251.8584)"><path
             d="m 0,0 c -25.504,0 -46.18,-20.675 -46.18,-46.18 h -10.78 c 0,31.458 25.502,56.96 56.96,56.96 z"
             style="fill:#ffd801;fill-opacity:1;fill-rule:nonzero;stroke:none"
             id="path72"
             inkscape:connector-curvature="0" /></g><g
           id="g74"
           transform="translate(346.2178,102.7207)"><path
             d="M 0,0 C 0,-25.504 -20.676,-46.179 -46.18,-46.179 V -56.96 c 31.458,0 56.96,25.502 56.96,56.96 z"
             style="fill:#ffd801;fill-opacity:1;fill-rule:nonzero;stroke:none"
             id="path76"
             inkscape:connector-curvature="0" /></g><g
           id="g78"
           transform="translate(300.0381,56.542)"><path
             d="M 0,0 C -25.504,0 -46.18,20.675 -46.18,46.179 H -56.961 C -56.961,14.721 -31.458,-10.78 0,-10.78 Z"
             style="fill:#ffd801;fill-opacity:1;fill-rule:nonzero;stroke:none"
             id="path80"
             inkscape:connector-curvature="0" /></g><g
           id="g82"
           transform="translate(346.1416,102.5293)"><path
             d="m 0,0 c 0,25.504 -20.675,46.18 -46.179,46.18 v 10.78 c 31.458,0 56.96,-25.501 56.96,-56.96 z"
             style="fill:#ffd801;fill-opacity:1;fill-rule:nonzero;stroke:none"
             id="path84"
             inkscape:connector-curvature="0" /></g><g
           id="g86"
           transform="translate(253.7822,205.7432)"><path
             d="m 0,0 c 0,-25.504 20.676,-46.18 46.18,-46.18 v -10.781 c -31.458,0 -56.96,25.503 -56.96,56.961 z"
             style="fill:#ffd801;fill-opacity:1;fill-rule:nonzero;stroke:none"
             id="path88"
             inkscape:connector-curvature="0" /></g><g
           id="g90"
           transform="translate(277.0225,205.7432)"><path
             d="M 0,0 V 44.731 H 8.946 V 26.839 H 35.785 V 44.731 H 44.73 V 0 H 35.785 V 17.893 H 8.946 V 0 Z"
             style="fill:#ffd801;fill-opacity:1;fill-rule:nonzero;stroke:none"
             id="path92"
             inkscape:connector-curvature="0" /></g><g
           id="g94"
           transform="translate(272.1826,142.8223)"><path
             d="m 0,0 -0.309,-0.309 0.366,0.098 7.868,-7.868 -2.88,-10.75 -10.749,-2.88 -7.869,7.869 0.097,0.365 -0.308,-0.309 5.045,-18.828 18.829,-5.046 13.784,13.784 -5.045,18.829 z"
             style="fill:#ffd801;fill-opacity:1;fill-rule:nonzero;stroke:none"
             id="path96"
             inkscape:connector-curvature="0" /></g><g
           id="g98"
           transform="translate(332.0986,82.9063)"><path
             d="m 0,0 -13.784,-13.784 -36.042,36.042 13.784,13.784 z"
             style="fill:#ffd801;fill-opacity:1;fill-rule:nonzero;stroke:none"
             id="path100"
             inkscape:connector-curvature="0" /></g><g
           id="g102"><g
             id="g104" /><g
             id="g116"><g
               clip-path="url(#clipPath108)"
               id="g114"
               style="opacity:0.39999402"><g
                 transform="translate(302.9639,206.0566)"
                 id="g112"><path
                   d="m 0,0 h -7.152 -35.761 c 0,-11.851 9.606,-21.457 21.457,-21.457 7.465,0 14.036,3.813 17.88,9.597 3.844,-5.784 10.416,-9.597 17.881,-9.597 11.849,0 21.457,9.606 21.457,21.457 z"
                   style="fill:#ffffff;fill-opacity:1;fill-rule:nonzero;stroke:none"
                   id="path110"
                   inkscape:connector-curvature="0" /></g></g></g></g></g></g></g></svg>